<svg xmlns="http://www.w3.org/2000/svg" width="142" height="34" viewBox="0 0 142 34"><g><g><g><path fill="#fff" d="M4.674 6.818l8.335 20.352h.307l8.335-20.352h4.794V33h-3.758V14.054h-.243l-7.722 18.908h-3.119l-7.722-18.92H3.64V33H-.12V6.818zM31.668 23.31c0-6.034 3.605-10.202 9.076-10.202 4.45 0 8.694 2.774 8.694 9.87v1.354h-13.96c.102 3.784 2.3 5.907 5.573 5.907 2.173 0 3.835-.946 4.526-2.8l3.618.652c-.87 3.196-3.9 5.305-8.182 5.305-5.791 0-9.345-3.988-9.345-10.086zm14.024-1.841c-.013-3.004-1.956-5.203-4.922-5.203-3.107 0-5.127 2.416-5.28 5.203zm19.237-2.698c-.448-1.317-1.547-2.633-3.925-2.633-2.173 0-3.81 1.074-3.797 2.582-.013 1.33.92 2.058 3.081 2.57l3.12.716c3.605.83 5.369 2.544 5.369 5.318 0 3.554-3.286 6.072-8.029 6.072-4.41 0-7.3-1.956-7.939-5.433l3.695-.562c.46 1.93 1.93 2.914 4.219 2.914 2.505 0 4.129-1.189 4.129-2.71 0-1.227-.882-2.07-2.774-2.493l-3.324-.728c-3.682-.819-5.37-2.672-5.37-5.46 0-3.477 3.146-5.816 7.582-5.816 4.244 0 6.635 1.994 7.427 5.05zm17.217-2.34h-4.027v10.803c0 2.212 1.112 2.621 2.352 2.621.614 0 1.087-.115 1.342-.166l.69 3.158c-.447.166-1.265.396-2.48.409-3.017.064-5.74-1.662-5.727-5.229V16.432H71.42v-3.068h2.876V8.659h3.823v4.705h4.027zm3.135 6.84c0-6.11 3.618-10.163 9.153-10.163 5.536 0 9.154 4.053 9.154 10.163 0 6.073-3.618 10.125-9.154 10.125-5.535 0-9.153-4.052-9.153-10.125zm14.446-.012c0-3.759-1.688-6.955-5.28-6.955-3.618 0-5.305 3.196-5.305 6.955 0 3.77 1.687 6.929 5.305 6.929 3.592 0 5.28-3.158 5.28-6.93zM107.06.273h2.949c2.046 0 2.966 1.133 2.966 2.676 0 1.159-.52 2.067-1.632 2.446L113.316 9h-1.227l-1.841-3.413c-.073.004-.145.004-.222.004h-1.909V9h-1.057zm2.932 4.363c1.398 0 1.943-.639 1.943-1.687s-.545-1.739-1.96-1.739h-1.858v3.426zm8.733-2.181h1.005V9h-1.005V7.892h-.068c-.307.665-.955 1.193-1.944 1.193-1.227 0-2.113-.8-2.113-2.471v-4.16h1.005v4.091c0 .955.597 1.569 1.432 1.569.75 0 1.688-.563 1.688-1.79zm6.58 1.721c-.174-.452-.537-.937-1.414-.937-.801 0-1.398.409-1.398.971 0 .503.349.763 1.125.955l.972.238c1.167.286 1.738.861 1.738 1.773 0 1.13-1.035 1.96-2.557 1.96-1.338 0-2.254-.592-2.488-1.704l.954-.239c.179.703.695 1.057 1.517 1.057.938 0 1.534-.46 1.534-1.023 0-.451-.311-.767-.971-.92l-1.091-.256c-1.202-.281-1.739-.886-1.739-1.79 0-1.108 1.023-1.892 2.404-1.892 1.295 0 2.002.622 2.318 1.551zm6.27 0c-.175-.452-.537-.937-1.415-.937-.801 0-1.398.409-1.398.971 0 .503.35.763 1.125.955l.972.238c1.168.286 1.739.861 1.739 1.773 0 1.13-1.036 1.96-2.557 1.96-1.338 0-2.254-.592-2.489-1.704l.955-.239c.179.703.694 1.057 1.517 1.057.937 0 1.534-.46 1.534-1.023 0-.451-.311-.767-.972-.92l-1.091-.256c-1.201-.281-1.738-.886-1.738-1.79 0-1.108 1.023-1.892 2.403-1.892 1.296 0 2.003.622 2.318 1.551zm2.537-1.721h1.005V9h-1.005zm-.205-1.773c0-.375.324-.682.716-.682.392 0 .716.307.716.682 0 .375-.324.682-.716.682-.392 0-.716-.307-.716-.682zm2.745 6.46c0-1.5 1.326-1.768 2.54-1.926 1.193-.154 1.688-.11 1.688-.597v-.034c0-.84-.456-1.33-1.381-1.33-.959 0-1.483.512-1.705.99l-.954-.342c.511-1.193 1.636-1.534 2.625-1.534.835 0 2.42.239 2.42 2.318V9h-1.005v-.886h-.051c-.205.426-.802 1.04-1.944 1.04-1.244 0-2.233-.734-2.233-2.012zm4.228-.511v-.92c-.171.204-1.313.323-1.739.374-.784.103-1.483.341-1.483 1.108 0 .7.58 1.057 1.381 1.057 1.193 0 1.841-.801 1.841-1.62z"/></g></g></g></svg>